<svg xmlns="http://www.w3.org/2000/svg" width="610" height="300" fill="none" viewBox="0 0 610 300"><g opacity=".2"><path fill="url(#paint0_linear_13160_22382)" d="M1 287V13C1 6.373 6.373 1 13 1h534.5L609 62.166V287c0 6.627-5.373 12-12 12H13c-6.627 0-12-5.373-12-12Z"/><path stroke="url(#paint1_linear_13160_22382)" stroke-width="2" d="M609 62.166V287c0 6.627-5.373 12-12 12H13c-6.627 0-12-5.373-12-12V13C1 6.373 6.373 1 13 1h534.5M609 62.166 547.5 1M609 62.166h-49.5c-6.627 0-12-5.373-12-12V1"/></g><defs><linearGradient id="paint0_linear_13160_22382" x1="305" x2="305" y1="1" y2="457.009" gradientUnits="userSpaceOnUse"><stop stop-color="#E6C3FF" stop-opacity=".8"/><stop offset="1" stop-color="#fff" stop-opacity="0"/></linearGradient><linearGradient id="paint1_linear_13160_22382" x1="305" x2="297.963" y1="1" y2="600.781" gradientUnits="userSpaceOnUse"><stop stop-color="#3C14A0"/><stop offset="1" stop-color="#3C14A0" stop-opacity=".19"/></linearGradient></defs></svg>